<svg xmlns="http://www.w3.org/2000/svg" xmlns:xlink="http://www.w3.org/1999/xlink" width="300" zoomAndPan="magnify" viewBox="0 0 224.87999 225" height="300" preserveAspectRatio="xMidYMid meet" version="1.0"><defs><clipPath id="bbbb1e54f8"><path d="M 32 33 L 177 33 L 177 191 L 32 191 Z M 32 33 " clip-rule="nonzero"/></clipPath><clipPath id="db1e6e474c"><path d="M 6.273438 40.03125 L 182.800781 9.476562 L 211.441406 174.925781 L 34.914062 205.484375 Z M 6.273438 40.03125 " clip-rule="nonzero"/></clipPath><clipPath id="3a01b589b6"><path d="M 6.273438 40.03125 L 182.800781 9.476562 L 211.441406 174.925781 L 34.914062 205.484375 Z M 6.273438 40.03125 " clip-rule="nonzero"/></clipPath><clipPath id="5f648074bd"><path d="M 28 28 L 181 28 L 181 195 L 28 195 Z M 28 28 " clip-rule="nonzero"/></clipPath><clipPath id="0b3f547530"><path d="M 6.273438 40.03125 L 182.800781 9.476562 L 211.441406 174.925781 L 34.914062 205.484375 Z M 6.273438 40.03125 " clip-rule="nonzero"/></clipPath><clipPath id="eceeedc466"><path d="M 6.273438 40.03125 L 182.800781 9.476562 L 211.441406 174.925781 L 34.914062 205.484375 Z M 6.273438 40.03125 " clip-rule="nonzero"/></clipPath><clipPath id="fe860c7514"><path d="M 12 0.0585938 L 224.761719 0.0585938 L 224.761719 187 L 12 187 Z M 12 0.0585938 " clip-rule="nonzero"/></clipPath><clipPath id="8ebecb517d"><path d="M 0 0.0585938 L 208 0.0585938 L 208 210 L 0 210 Z M 0 0.0585938 " clip-rule="nonzero"/></clipPath></defs><path stroke-linecap="round" transform="matrix(-0.7496, -0.0000000013083, 0.0000000013083, -0.7496, 165.638395, 123.652251)" fill="none" stroke-linejoin="miter" d="M 11.497951 11.500803 L 140.770033 11.500802 " stroke="#ffffff" stroke-width="23" stroke-opacity="1" stroke-miterlimit="4"/><path stroke-linecap="round" transform="matrix(0, 0.7496, -0.7496, 0, 165.508358, 107.425763)" fill="none" stroke-linejoin="miter" d="M 11.500951 11.501654 L 80.235532 11.501654 " stroke="#ffffff" stroke-width="23" stroke-opacity="1" stroke-miterlimit="4"/><path stroke-linecap="round" transform="matrix(0.7496, -0.000000000000000279, 0.000000000000000279, 0.7496, 55.264947, 158.815442)" fill="none" stroke-linejoin="miter" d="M 11.501831 11.502213 L 135.745188 11.502213 " stroke="#ffffff" stroke-width="23" stroke-opacity="1" stroke-miterlimit="4"/><path stroke-linecap="round" transform="matrix(0, -0.7496, 0.7496, 0, 55.390194, 176.181477)" fill="none" stroke-linejoin="miter" d="M 11.498103 11.501501 L 42.300992 11.501501 " stroke="#ffffff" stroke-width="23" stroke-opacity="1" stroke-miterlimit="4"/><g clip-path="url(#bbbb1e54f8)"><g clip-path="url(#db1e6e474c)"><g clip-path="url(#3a01b589b6)"><path fill="#7ed957" d="M 135.5 33.875 C 114.78125 37.425781 91.652344 51.976562 72.355469 71.824219 C 89.589844 55.171875 109.601562 43.128906 127.648438 40.035156 C 161.464844 34.246094 175.585938 62.0625 159.183594 102.167969 C 142.785156 142.273438 102.074219 179.476562 68.257812 185.269531 C 50.207031 188.359375 37.773438 181.875 32.59375 169.054688 C 37.339844 184.785156 51.152344 193.011719 71.871094 189.46875 C 108.101562 183.265625 151.710938 143.40625 169.28125 100.441406 C 186.855469 57.476562 171.726562 27.675781 135.5 33.875 Z M 135.5 33.875 " fill-opacity="1" fill-rule="nonzero"/></g></g></g><g clip-path="url(#5f648074bd)"><g clip-path="url(#0b3f547530)"><g clip-path="url(#eceeedc466)"><path fill="#7ed957" d="M 103.914062 43.445312 C 149.894531 15.175781 185.96875 29.820312 180.238281 73.96875 C 175.167969 117.585938 129.082031 173.542969 84.9375 189.707031 C 56.707031 200.484375 33.96875 192.695312 28.914062 170.164062 C 35.507812 194.6875 63.289062 200.40625 95.792969 183.410156 C 144.742188 158.402344 185.898438 94.84375 178.113281 56.144531 C 172.539062 26.859375 140.84375 21.613281 103.914062 43.445312 Z M 103.914062 43.445312 " fill-opacity="1" fill-rule="nonzero"/></g></g></g><g clip-path="url(#fe860c7514)"><path stroke-linecap="round" transform="matrix(-0.48843, -0.568627, 0.568627, -0.48843, 150.276456, 100.719163)" fill="none" stroke-linejoin="miter" d="M 11.500081 11.500954 L 96.036239 11.502608 " stroke="#ffffff" stroke-width="23" stroke-opacity="1" stroke-miterlimit="4"/></g><g clip-path="url(#8ebecb517d)"><path stroke-linecap="round" transform="matrix(0.430148, -0.6139, 0.6139, 0.430148, 48.204246, 114.189285)" fill="none" stroke-linejoin="miter" d="M 11.502209 11.498686 L 127.254448 11.502558 " stroke="#ffffff" stroke-width="23" stroke-opacity="1" stroke-miterlimit="4"/></g></svg>